<svg width="96" height="96" viewBox="0 0 96 96" fill="none" xmlns="http://www.w3.org/2000/svg">
<path d="M44.8563 0.0258339C44.6499 0.0445995 43.993 0.110279 43.4018 0.157193C29.7666 1.38634 16.9947 8.74244 8.90557 20.0487C4.40117 26.3352 1.52023 33.4661 0.431672 41.0192C0.0469208 43.6558 0 44.4346 0 48.0094C0 51.5842 0.0469208 52.363 0.431672 54.9996C3.04047 73.0239 15.8686 88.1677 33.2669 93.7786C36.3824 94.7826 39.6669 95.4675 43.4018 95.8804C44.8563 96.0399 51.1437 96.0399 52.5982 95.8804C59.0452 95.1673 64.5067 93.5722 69.8933 90.823C70.7191 90.4008 70.8786 90.2882 70.766 90.1944C70.6909 90.1381 67.1718 85.4186 62.949 79.7138L55.2727 69.3459L45.654 55.1122C40.3613 47.2869 36.007 40.8879 35.9695 40.8879C35.932 40.8785 35.8944 47.2025 35.8757 54.9245C35.8475 68.4451 35.8381 68.9893 35.6692 69.3083C35.4252 69.7681 35.2375 69.9557 34.8434 70.1622C34.5431 70.3123 34.2804 70.3404 32.8633 70.3404H31.2399L30.8082 70.0683C30.5267 69.8901 30.3202 69.6555 30.1795 69.3834L29.9824 68.9612L30.0012 50.1487L30.0293 31.3268L30.3202 30.9609C30.4704 30.7638 30.7894 30.5105 31.0147 30.3885C31.3994 30.2009 31.5496 30.1821 33.173 30.1821C35.0874 30.1821 35.4065 30.2572 35.9038 30.8014C36.0446 30.9515 41.2528 38.7955 47.4839 48.244C53.715 57.6924 62.2358 70.5938 66.4211 76.9271L74.0223 88.4398L74.407 88.1865C77.8135 85.9721 81.417 82.8195 84.2698 79.5356C90.3413 72.5641 94.2545 64.0633 95.5683 54.9996C95.9531 52.363 96 51.5842 96 48.0094C96 44.4346 95.9531 43.6558 95.5683 41.0192C92.9595 22.9949 80.1314 7.85108 62.7331 2.24017C59.6645 1.2456 56.3988 0.560653 52.739 0.14781C51.8381 0.0539823 45.6352 -0.0492283 44.8563 0.0258339ZM64.5067 29.0562C64.9572 29.2814 65.3232 29.713 65.4545 30.1633C65.5296 30.4073 65.5484 35.6241 65.5296 47.3807L65.5015 64.251L62.5267 59.691L59.5425 55.1309V42.8676C59.5425 34.9392 59.5801 30.4824 59.6364 30.2665C59.7865 29.7411 60.115 29.3283 60.5654 29.0843C60.9501 28.8873 61.0909 28.8685 62.5642 28.8685C63.9531 28.8685 64.1971 28.8873 64.5067 29.0562Z" fill="white"/>
</svg>
