<svg width="109" height="66" viewBox="0 0 109 66" fill="none" xmlns="http://www.w3.org/2000/svg">
<path d="M54.5 0C39.9667 0 30.8833 7.26666 27.25 21.8C32.7 14.5333 39.0583 11.8083 46.325 13.625C50.471 14.6615 53.4344 17.6693 56.7145 20.9988C62.0579 26.4226 68.2423 32.7 81.75 32.7C96.2833 32.7 105.367 25.4333 109 10.9C103.55 18.1667 97.1917 20.8917 89.925 19.075C85.779 18.0385 82.8156 15.0307 79.5355 11.7011C74.1921 6.27739 68.0077 0 54.5 0ZM27.25 32.7C12.7167 32.7 3.63333 39.9667 0 54.5C5.45 47.2333 11.8083 44.5083 19.075 46.325C23.221 47.3615 26.1844 50.3693 29.4645 53.6988C34.8079 59.1226 40.9923 65.4 54.5 65.4C69.0333 65.4 78.1167 58.1333 81.75 43.6C76.3 50.8667 69.9417 53.5917 62.675 51.775C58.529 50.7385 55.5656 47.7307 52.2855 44.4011C46.9421 38.9774 40.7577 32.7 27.25 32.7Z" fill="url(#paint0_linear_169_1180)"/>
<defs>
<linearGradient id="paint0_linear_169_1180" x1="-302.778" y1="2092.8" x2="9111.16" y2="7520.65" gradientUnits="userSpaceOnUse">
<stop stop-color="#2298BD"/>
<stop offset="1" stop-color="#0ED7B5"/>
</linearGradient>
</defs>
</svg>
