<svg width="96" height="96" viewBox="0 0 96 96" fill="none" xmlns="http://www.w3.org/2000/svg">
<g clip-path="url(#clip0_276_10)">
<path d="M0 48V0H96V96H0" fill="#007ACC"/>
<path d="M21.0488 48.1679V52.0799H33.5288V87.5999H42.3848V52.0799H54.8648V48.2399C54.8648 46.0799 54.8648 44.3279 54.7688 44.2799C54.7688 44.2079 47.1608 44.1839 37.9208 44.1839L21.1208 44.2559V48.1919L21.0488 48.1679ZM77.1368 44.1599C79.5848 44.7359 81.4568 45.8399 83.1368 47.5919C84.0248 48.5519 85.3448 50.2319 85.4408 50.6639C85.4408 50.8079 81.2888 53.6159 78.7688 55.1759C78.6728 55.2479 78.2888 54.8399 77.9048 54.2159C76.6568 52.4399 75.3848 51.6719 73.3928 51.5279C70.5128 51.3359 68.5928 52.8479 68.5928 55.3679C68.5928 56.1359 68.7368 56.5679 69.0248 57.1919C69.6728 58.5119 70.8728 59.3039 74.5928 60.9359C81.4568 63.8879 84.4328 65.8319 86.2328 68.6159C88.2728 71.7359 88.7288 76.6319 87.3608 80.3039C85.8248 84.3119 82.0808 87.0239 76.7288 87.9119C75.0488 88.1999 71.2088 88.1519 69.4088 87.8399C65.5688 87.1199 61.8968 85.1999 59.6408 82.7279C58.7528 81.7679 57.0488 79.1999 57.1448 79.0319L58.0568 78.4559L61.6568 76.3679L64.3688 74.7839L64.9928 75.6239C65.7848 76.8719 67.5608 78.5519 68.5928 79.1279C71.7128 80.7359 75.8888 80.5199 77.9528 78.6479C78.8408 77.8319 79.2248 76.9679 79.2248 75.7679C79.2248 74.6639 79.0568 74.1599 78.5048 73.3199C77.7368 72.2639 76.2008 71.3999 71.8808 69.4799C66.9128 67.3679 64.8008 66.0239 62.8328 63.9599C61.7048 62.7119 60.6728 60.7679 60.1928 59.1599C59.8328 57.7679 59.7128 54.3599 60.0488 52.9919C61.0808 48.1919 64.7048 44.8319 69.8888 43.8719C71.5688 43.5359 75.5288 43.6799 77.1848 44.1119L77.1368 44.1599Z" fill="white"/>
</g>
<defs>
<clipPath id="clip0_276_10">
<rect width="96" height="96" rx="15" fill="white"/>
</clipPath>
</defs>
</svg>
